# xmcd
#
# Track frame offsets: 
#        150
#        13878
#        24678
#        39031
#        54453
#        73593
#        90405
#        106252
#        114582
#        134404
#        157907
#        190037
#        204877
#        217105
#        228958
#        241581
#        252141
#        261514
#        278596
#        291026
#        304186
#
# Disc length: 4273 seconds
#
# Revision: 0
# Processed by: cddbd v1.5.2PL0 Copyright (c) Steve Scherf et al.
# Submitted via: ExactAudioCopy v0.95b4
#
DISCID=1a10af15
DTITLE=Various Artist - Billboard 1968
DYEAR=2000
DGENRE=Other
TTITLE0=Simon and Garfunkel - The Sound of Silence
TTITLE1=Bee Gees - Massachusetts
TTITLE2=The Beatles - Ob-La-Di, Ob-La-Da
TTITLE3=The Mamas and the Papas - Monday, Monday
TTITLE4=Janis Joplin - Piece of My Heart
TTITLE5=The Rolling Stones - Jumpin' Jack Flash
TTITLE6=Steppenwolf - Born to Be Wild
TTITLE7=The Ventures - Hawaii Five-0
TTITLE8=Deep Purple - Hush
TTITLE9=Jimi Hendrix - Voodoo Child
TTITLE10=The Beatles - Hey Jude
TTITLE11=Frankie Valli and The Four Seasons - Will You Love Me Tomorrow?
TTITLE12=Stevie Wonder - Hey Love
TTITLE13=The Hollies - Listen to Me
TTITLE14=The Classics IV - Traces
TTITLE15=Johnny Burnette - Dreamin'
TTITLE16=Tom Jones - It's Not Unusual
TTITLE17=Ten Years After - I'd Love to Change the World
TTITLE18=The Tokens - The Lion Sleeps Tonight
TTITLE19=Marvin Gaye - Too Busy Thinking About My Baby
TTITLE20=Rare Earth - I Just Want to Celebrate
EXTD=
EXTT0=
EXTT1=
EXTT2=
EXTT3=
EXTT4=
EXTT5=
EXTT6=
EXTT7=
EXTT8=
EXTT9=
EXTT10=
EXTT11=
EXTT12=
EXTT13=
EXTT14=
EXTT15=
EXTT16=
EXTT17=
EXTT18=
EXTT19=
EXTT20=
PLAYORDER=
